<?xml version="1.0" encoding="UTF-8"?>
<svg width="40" height="40" viewBox="0 0 40 40" fill="none" xmlns="http://www.w3.org/2000/svg">
    <rect width="40" height="40" rx="8" fill="#4169E1"/>
    <path d="M20 8C13.373 8 8 13.373 8 20C8 26.627 13.373 32 20 32C26.627 32 32 26.627 32 20C32 13.373 26.627 8 20 8ZM20 30C14.477 30 10 25.523 10 20C10 14.477 14.477 10 20 10C25.523 10 30 14.477 30 20C30 25.523 25.523 30 20 30Z" fill="white"/>
    <path d="M24 16C24 18.2091 22.2091 20 20 20C17.7909 20 16 18.2091 16 16C16 13.7909 17.7909 12 20 12C22.2091 12 24 13.7909 24 16Z" fill="white"/>
    <path d="M28 24C28 26.2091 26.2091 28 24 28C21.7909 28 20 26.2091 20 24C20 21.7909 21.7909 20 24 20C26.2091 20 28 21.7909 28 24Z" fill="white"/>
    <path d="M20 28C17.7909 28 16 26.2091 16 24C16 21.7909 17.7909 20 20 20C22.2091 20 24 21.7909 24 24C24 26.2091 22.2091 28 20 28Z" fill="white"/>
</svg>
